<mxfile host="app.diagrams.net" agent="Mozilla/5.0 (Windows NT 10.0; Win64; x64) AppleWebKit/537.36 (KHTML, like Gecko) Chrome/134.0.0.0 Safari/537.36" version="24.8.3">
  <diagram name="Seite-1" id="YvnQlyVcSjKCc82oIfcz">
    <mxGraphModel dx="1671" dy="1054" grid="1" gridSize="10" guides="1" tooltips="1" connect="1" arrows="1" fold="1" page="1" pageScale="1" pageWidth="2000" pageHeight="2000" math="0" shadow="0">
      <root>
        <mxCell id="0" />
        <mxCell id="1" parent="0" />
        <mxCell id="CjTKDPqjggXjiqXRryTd-22" style="edgeStyle=orthogonalEdgeStyle;rounded=0;orthogonalLoop=1;jettySize=auto;html=1;" edge="1" parent="1" source="CjTKDPqjggXjiqXRryTd-2" target="CjTKDPqjggXjiqXRryTd-10">
          <mxGeometry relative="1" as="geometry">
            <mxPoint x="80" y="210" as="sourcePoint" />
            <mxPoint x="80" y="1000" as="targetPoint" />
            <Array as="points">
              <mxPoint x="340" y="160" />
              <mxPoint x="340" y="1000" />
            </Array>
          </mxGeometry>
        </mxCell>
        <mxCell id="CjTKDPqjggXjiqXRryTd-37" style="edgeStyle=orthogonalEdgeStyle;rounded=0;orthogonalLoop=1;jettySize=auto;html=1;" edge="1" parent="1" source="CjTKDPqjggXjiqXRryTd-2" target="CjTKDPqjggXjiqXRryTd-27">
          <mxGeometry relative="1" as="geometry">
            <Array as="points">
              <mxPoint x="430" y="160" />
              <mxPoint x="430" y="160" />
            </Array>
          </mxGeometry>
        </mxCell>
        <mxCell id="CjTKDPqjggXjiqXRryTd-2" value="Byte" style="shape=hexagon;perimeter=hexagonPerimeter2;whiteSpace=wrap;html=1;fixedSize=1;" vertex="1" parent="1">
          <mxGeometry x="120" y="120" width="120" height="80" as="geometry" />
        </mxCell>
        <mxCell id="CjTKDPqjggXjiqXRryTd-32" style="edgeStyle=orthogonalEdgeStyle;rounded=0;orthogonalLoop=1;jettySize=auto;html=1;" edge="1" parent="1" source="CjTKDPqjggXjiqXRryTd-3" target="CjTKDPqjggXjiqXRryTd-27">
          <mxGeometry relative="1" as="geometry">
            <Array as="points">
              <mxPoint x="450" y="760" />
              <mxPoint x="450" y="760" />
            </Array>
          </mxGeometry>
        </mxCell>
        <mxCell id="CjTKDPqjggXjiqXRryTd-3" value="Double" style="shape=hexagon;perimeter=hexagonPerimeter2;whiteSpace=wrap;html=1;fixedSize=1;" vertex="1" parent="1">
          <mxGeometry x="120" y="720" width="120" height="80" as="geometry" />
        </mxCell>
        <mxCell id="CjTKDPqjggXjiqXRryTd-33" style="edgeStyle=orthogonalEdgeStyle;rounded=0;orthogonalLoop=1;jettySize=auto;html=1;" edge="1" parent="1" source="CjTKDPqjggXjiqXRryTd-4" target="CjTKDPqjggXjiqXRryTd-27">
          <mxGeometry relative="1" as="geometry">
            <Array as="points">
              <mxPoint x="450" y="640" />
              <mxPoint x="450" y="640" />
            </Array>
          </mxGeometry>
        </mxCell>
        <mxCell id="CjTKDPqjggXjiqXRryTd-4" value="Float" style="shape=hexagon;perimeter=hexagonPerimeter2;whiteSpace=wrap;html=1;fixedSize=1;" vertex="1" parent="1">
          <mxGeometry x="120" y="600" width="120" height="80" as="geometry" />
        </mxCell>
        <mxCell id="CjTKDPqjggXjiqXRryTd-23" style="edgeStyle=orthogonalEdgeStyle;rounded=0;orthogonalLoop=1;jettySize=auto;html=1;" edge="1" parent="1" source="CjTKDPqjggXjiqXRryTd-5" target="CjTKDPqjggXjiqXRryTd-14">
          <mxGeometry relative="1" as="geometry">
            <mxPoint x="320" y="1130" as="targetPoint" />
            <Array as="points">
              <mxPoint x="300" y="400" />
              <mxPoint x="300" y="1120" />
            </Array>
          </mxGeometry>
        </mxCell>
        <mxCell id="CjTKDPqjggXjiqXRryTd-35" style="edgeStyle=orthogonalEdgeStyle;rounded=0;orthogonalLoop=1;jettySize=auto;html=1;" edge="1" parent="1" source="CjTKDPqjggXjiqXRryTd-5" target="CjTKDPqjggXjiqXRryTd-27">
          <mxGeometry relative="1" as="geometry">
            <Array as="points">
              <mxPoint x="450" y="400" />
              <mxPoint x="450" y="400" />
            </Array>
          </mxGeometry>
        </mxCell>
        <mxCell id="CjTKDPqjggXjiqXRryTd-5" value="Int" style="shape=hexagon;perimeter=hexagonPerimeter2;whiteSpace=wrap;html=1;fixedSize=1;" vertex="1" parent="1">
          <mxGeometry x="120" y="360" width="120" height="80" as="geometry" />
        </mxCell>
        <mxCell id="CjTKDPqjggXjiqXRryTd-24" style="edgeStyle=orthogonalEdgeStyle;rounded=0;orthogonalLoop=1;jettySize=auto;html=1;" edge="1" parent="1" source="CjTKDPqjggXjiqXRryTd-6" target="CjTKDPqjggXjiqXRryTd-11">
          <mxGeometry relative="1" as="geometry">
            <mxPoint x="280" y="1240" as="targetPoint" />
            <Array as="points">
              <mxPoint x="260" y="520" />
              <mxPoint x="260" y="1240" />
            </Array>
          </mxGeometry>
        </mxCell>
        <mxCell id="CjTKDPqjggXjiqXRryTd-34" style="edgeStyle=orthogonalEdgeStyle;rounded=0;orthogonalLoop=1;jettySize=auto;html=1;" edge="1" parent="1" source="CjTKDPqjggXjiqXRryTd-6" target="CjTKDPqjggXjiqXRryTd-27">
          <mxGeometry relative="1" as="geometry">
            <Array as="points">
              <mxPoint x="460" y="520" />
              <mxPoint x="460" y="520" />
            </Array>
          </mxGeometry>
        </mxCell>
        <mxCell id="CjTKDPqjggXjiqXRryTd-6" value="Long" style="shape=hexagon;perimeter=hexagonPerimeter2;whiteSpace=wrap;html=1;fixedSize=1;" vertex="1" parent="1">
          <mxGeometry x="120" y="480" width="120" height="80" as="geometry" />
        </mxCell>
        <mxCell id="CjTKDPqjggXjiqXRryTd-36" style="edgeStyle=orthogonalEdgeStyle;rounded=0;orthogonalLoop=1;jettySize=auto;html=1;" edge="1" parent="1" source="CjTKDPqjggXjiqXRryTd-7" target="CjTKDPqjggXjiqXRryTd-27">
          <mxGeometry relative="1" as="geometry">
            <Array as="points">
              <mxPoint x="460" y="280" />
              <mxPoint x="460" y="280" />
            </Array>
          </mxGeometry>
        </mxCell>
        <mxCell id="CjTKDPqjggXjiqXRryTd-7" value="Short" style="shape=hexagon;perimeter=hexagonPerimeter2;whiteSpace=wrap;html=1;fixedSize=1;" vertex="1" parent="1">
          <mxGeometry x="120" y="240" width="120" height="80" as="geometry" />
        </mxCell>
        <mxCell id="CjTKDPqjggXjiqXRryTd-31" style="edgeStyle=orthogonalEdgeStyle;rounded=0;orthogonalLoop=1;jettySize=auto;html=1;" edge="1" parent="1" source="CjTKDPqjggXjiqXRryTd-9" target="CjTKDPqjggXjiqXRryTd-27">
          <mxGeometry relative="1" as="geometry">
            <Array as="points">
              <mxPoint x="450" y="880" />
              <mxPoint x="450" y="880" />
            </Array>
          </mxGeometry>
        </mxCell>
        <mxCell id="CjTKDPqjggXjiqXRryTd-9" value="string" style="shape=hexagon;perimeter=hexagonPerimeter2;whiteSpace=wrap;html=1;fixedSize=1;" vertex="1" parent="1">
          <mxGeometry x="120" y="840" width="120" height="80" as="geometry" />
        </mxCell>
        <mxCell id="CjTKDPqjggXjiqXRryTd-30" value="" style="edgeStyle=orthogonalEdgeStyle;rounded=0;orthogonalLoop=1;jettySize=auto;html=1;" edge="1" parent="1" source="CjTKDPqjggXjiqXRryTd-10" target="CjTKDPqjggXjiqXRryTd-27">
          <mxGeometry relative="1" as="geometry">
            <Array as="points">
              <mxPoint x="510" y="1000" />
              <mxPoint x="510" y="1000" />
            </Array>
          </mxGeometry>
        </mxCell>
        <mxCell id="CjTKDPqjggXjiqXRryTd-10" value="ByteArray" style="shape=hexagon;perimeter=hexagonPerimeter2;whiteSpace=wrap;html=1;fixedSize=1;" vertex="1" parent="1">
          <mxGeometry x="360" y="960" width="120" height="80" as="geometry" />
        </mxCell>
        <mxCell id="CjTKDPqjggXjiqXRryTd-28" value="" style="edgeStyle=orthogonalEdgeStyle;rounded=0;orthogonalLoop=1;jettySize=auto;html=1;" edge="1" parent="1" source="CjTKDPqjggXjiqXRryTd-11" target="CjTKDPqjggXjiqXRryTd-27">
          <mxGeometry relative="1" as="geometry">
            <Array as="points">
              <mxPoint x="510" y="1240" />
              <mxPoint x="510" y="1240" />
            </Array>
          </mxGeometry>
        </mxCell>
        <mxCell id="CjTKDPqjggXjiqXRryTd-11" value="LongArray" style="shape=hexagon;perimeter=hexagonPerimeter2;whiteSpace=wrap;html=1;fixedSize=1;" vertex="1" parent="1">
          <mxGeometry x="360" y="1200" width="120" height="80" as="geometry" />
        </mxCell>
        <mxCell id="CjTKDPqjggXjiqXRryTd-29" style="edgeStyle=orthogonalEdgeStyle;rounded=0;orthogonalLoop=1;jettySize=auto;html=1;" edge="1" parent="1" source="CjTKDPqjggXjiqXRryTd-14" target="CjTKDPqjggXjiqXRryTd-27">
          <mxGeometry relative="1" as="geometry">
            <Array as="points">
              <mxPoint x="510" y="1120" />
              <mxPoint x="510" y="1120" />
            </Array>
          </mxGeometry>
        </mxCell>
        <mxCell id="CjTKDPqjggXjiqXRryTd-14" value="IntArray" style="shape=hexagon;perimeter=hexagonPerimeter2;whiteSpace=wrap;html=1;fixedSize=1;" vertex="1" parent="1">
          <mxGeometry x="360" y="1080" width="120" height="80" as="geometry" />
        </mxCell>
        <mxCell id="CjTKDPqjggXjiqXRryTd-41" style="edgeStyle=orthogonalEdgeStyle;rounded=0;orthogonalLoop=1;jettySize=auto;html=1;" edge="1" parent="1" source="CjTKDPqjggXjiqXRryTd-27" target="CjTKDPqjggXjiqXRryTd-43">
          <mxGeometry relative="1" as="geometry">
            <mxPoint x="360.0238095238094" y="1360.0476190476188" as="targetPoint" />
            <Array as="points">
              <mxPoint x="660" y="700" />
              <mxPoint x="660" y="160" />
            </Array>
          </mxGeometry>
        </mxCell>
        <mxCell id="CjTKDPqjggXjiqXRryTd-27" value="PrimitiveType" style="rounded=0;whiteSpace=wrap;html=1;" vertex="1" parent="1">
          <mxGeometry x="520" y="120" width="120" height="1160" as="geometry" />
        </mxCell>
        <mxCell id="CjTKDPqjggXjiqXRryTd-46" value="" style="edgeStyle=orthogonalEdgeStyle;rounded=0;orthogonalLoop=1;jettySize=auto;html=1;" edge="1" parent="1" source="CjTKDPqjggXjiqXRryTd-43" target="CjTKDPqjggXjiqXRryTd-45">
          <mxGeometry relative="1" as="geometry" />
        </mxCell>
        <mxCell id="CjTKDPqjggXjiqXRryTd-43" value="Compound" style="rounded=0;whiteSpace=wrap;html=1;" vertex="1" parent="1">
          <mxGeometry x="760" y="120" width="120" height="200" as="geometry" />
        </mxCell>
        <mxCell id="CjTKDPqjggXjiqXRryTd-49" style="edgeStyle=orthogonalEdgeStyle;rounded=0;orthogonalLoop=1;jettySize=auto;html=1;" edge="1" parent="1" source="CjTKDPqjggXjiqXRryTd-45" target="CjTKDPqjggXjiqXRryTd-43">
          <mxGeometry relative="1" as="geometry">
            <mxPoint x="930" y="420" as="targetPoint" />
            <Array as="points">
              <mxPoint x="960" y="340" />
              <mxPoint x="820" y="340" />
            </Array>
          </mxGeometry>
        </mxCell>
        <mxCell id="CjTKDPqjggXjiqXRryTd-50" value="No" style="edgeLabel;html=1;align=center;verticalAlign=middle;resizable=0;points=[];" vertex="1" connectable="0" parent="CjTKDPqjggXjiqXRryTd-49">
          <mxGeometry x="-0.7046" relative="1" as="geometry">
            <mxPoint x="-10" y="-26" as="offset" />
          </mxGeometry>
        </mxCell>
        <mxCell id="CjTKDPqjggXjiqXRryTd-45" value="key=&#39;&#39;" style="rhombus;whiteSpace=wrap;html=1;" vertex="1" parent="1">
          <mxGeometry x="920" y="180" width="80" height="80" as="geometry" />
        </mxCell>
        <mxCell id="CjTKDPqjggXjiqXRryTd-48" value="Compound" style="rounded=0;whiteSpace=wrap;html=1;" vertex="1" parent="1">
          <mxGeometry x="1040" y="120" width="120" height="200" as="geometry" />
        </mxCell>
      </root>
    </mxGraphModel>
  </diagram>
</mxfile>
